<?xml version="1.0" encoding="UTF-8"?>
<svg xmlns="http://www.w3.org/2000/svg" xmlns:xlink="http://www.w3.org/1999/xlink" width="40pt" height="28pt" viewBox="0 0 40 28" version="1.1">
<g id="surface1">
<path style=" stroke:none;fill-rule:nonzero;fill:rgb(96.862745%,44.313725%,11.764706%);fill-opacity:1;" d="M 0.257812 5.429688 C 0.46875 2.804688 2.785156 0.511719 5.402344 0.328125 C 5.402344 0.328125 10.113281 0 19.601562 0 C 29.09375 0 34.277344 0.34375 34.277344 0.34375 C 36.890625 0.519531 39.21875 2.804688 39.441406 5.429688 C 39.441406 5.429688 39.675781 8.152344 39.675781 13.667969 C 39.675781 19.179688 39.417969 22.386719 39.417969 22.386719 C 39.207031 25.011719 36.890625 27.304688 34.277344 27.488281 C 34.277344 27.488281 29.5625 27.820312 20.070312 27.820312 C 10.582031 27.820312 5.402344 27.472656 5.402344 27.472656 C 2.785156 27.300781 0.457031 25.011719 0.234375 22.390625 C 0.234375 22.390625 0 19.664062 0 14.148438 C 0 8.636719 0.257812 5.429688 0.257812 5.429688 Z M 0.257812 5.429688 "/>
<path style=" stroke:none;fill-rule:nonzero;fill:rgb(100%,100%,100%);fill-opacity:1;" d="M 15.535156 8.378906 L 26.105469 13.90625 L 15.535156 19.441406 Z M 15.535156 8.378906 "/>
</g>
</svg>
